<svg width="111" height="101" viewBox="0 0 111 101" fill="none" xmlns="http://www.w3.org/2000/svg">
<path d="M46.5536 65.8017H64.4908V95.7288H46.5536V65.8017Z" fill="#808A8D"/>
<path d="M12.7929 89.3582H98.2514C100.805 89.3582 102.875 91.4283 102.875 93.982V95.6141C102.875 98.1678 100.805 100.238 98.2514 100.238H12.7929C10.2392 100.238 8.16909 98.1678 8.16909 95.6141V93.982C8.16909 91.4283 10.2394 89.3582 12.7929 89.3582ZM3.44432 0.237885H107.6C109.361 0.237885 110.789 1.66555 110.789 3.42671V77.5764C110.789 79.3376 109.361 80.7652 107.6 80.7652H3.44432C1.68316 80.7652 0.255493 79.3376 0.255493 77.5764V3.42671C0.255493 1.66555 1.68316 0.237885 3.44432 0.237885Z" fill="#C5CFD1"/>
<path d="M12.7318 10.3777H98.3125C100.074 10.3777 101.501 11.8053 101.501 13.5665V67.4366C101.501 69.1978 100.074 70.6254 98.3125 70.6254H12.7318C10.9706 70.6254 9.54297 69.1978 9.54297 67.4366V13.5665C9.54297 11.8053 10.9706 10.3777 12.7318 10.3777Z" fill="#343434"/>
<path d="M93.7617 78.4232C95.2684 78.4232 96.4897 77.2019 96.4897 75.6953C96.4897 74.1886 95.2684 72.9673 93.7617 72.9673C92.2551 72.9673 91.0338 74.1886 91.0338 75.6953C91.0338 77.2019 92.2551 78.4232 93.7617 78.4232Z" fill="#D7F4F7"/>
<path d="M79.6634 77.7062H85.9053C86.4387 77.7062 86.9502 77.4943 87.3274 77.1171C87.7046 76.74 87.9165 76.2284 87.9165 75.695C87.9165 75.1616 87.7046 74.6501 87.3274 74.2729C86.9502 73.8957 86.4387 73.6838 85.9053 73.6838H79.6634C79.13 73.6838 78.6185 73.8957 78.2413 74.2729C77.8641 74.6501 77.6522 75.1616 77.6522 75.695C77.6524 76.8058 78.5528 77.7062 79.6634 77.7062Z" fill="#8F9799"/>
</svg>
