<svg width="175" height="45" viewBox="0 0 175 45" fill="none" xmlns="http://www.w3.org/2000/svg">
<path d="M21.5977 40.2299C18.6155 40.2299 15.6863 39.4223 13.1032 37.8875C10.5209 36.3527 8.37603 34.1452 6.88459 31.4865C5.39384 28.8278 4.60807 25.812 4.60807 22.7417C4.60807 19.6714 5.39315 16.6555 6.8839 13.9969L6.88668 13.9926C7.18692 13.4482 7.26633 12.8028 7.10681 12.1982C6.94728 11.5943 6.56206 11.0786 6.03542 10.7659C5.50878 10.4525 4.88252 10.3664 4.29458 10.5264C3.70595 10.687 3.203 11.08 2.89579 11.6201L2.893 11.6244C0.516166 15.863 -0.435406 20.7902 0.184578 25.6428C0.805259 30.4946 2.96336 35.0008 6.32451 38.462C9.68566 41.9225 14.0625 44.145 18.7751 44.7841C23.4883 45.4231 28.2741 44.4427 32.391 41.9963C36.508 39.5492 39.7257 35.7725 41.5452 31.2505C43.3648 26.7293 43.6845 21.7161 42.4543 16.9883C41.2248 12.2613 38.5142 8.08359 34.7428 5.10363C30.972 2.12366 26.3514 0.50853 21.5977 0.507812C20.9868 0.507812 20.4002 0.757393 19.9683 1.20277C19.5364 1.64744 19.2933 2.2506 19.2933 2.88031C19.2933 3.50929 19.5364 4.11246 19.9683 4.55784C20.4002 5.0025 20.9868 5.25209 21.5977 5.25209C26.1027 5.25209 30.4231 7.09457 33.6087 10.3743C36.7943 13.6541 38.5839 18.1028 38.5839 22.741C38.5839 27.3791 36.7943 31.8272 33.6087 35.1069C30.4231 38.3867 26.1027 40.2299 21.5977 40.2299Z" fill="#FF6700"/>
<path d="M50.1211 21.9521C50.1211 20.5177 50.4576 19.2389 51.1312 18.1151C51.8278 16.9675 52.7564 16.0596 53.9177 15.3897C55.0789 14.7206 56.3558 14.3856 57.749 14.3856C59.1422 14.3856 60.1753 14.6252 60.849 15.1028C61.5456 15.5575 61.8124 16.1069 61.6501 16.7524C61.5804 17.0873 61.4411 17.3505 61.2321 17.5413C61.0461 17.7091 60.826 17.8167 60.5703 17.864C60.3146 17.9121 60.036 17.8999 59.7344 17.8282C58.2485 17.5176 56.9131 17.494 55.7289 17.7565C54.5446 18.0197 53.6042 18.5095 52.9076 19.2267C52.2339 19.9439 51.8975 20.8526 51.8975 21.9521H50.1211ZM50.156 34.2162C49.5987 34.2162 49.1689 34.0727 48.8672 33.7858C48.5656 33.4753 48.4144 33.0213 48.4144 32.4232V16.3938C48.4144 15.82 48.5656 15.3782 48.8672 15.067C49.1689 14.7564 49.5987 14.6008 50.156 14.6008C50.7362 14.6008 51.166 14.7564 51.4447 15.067C51.7463 15.3538 51.8975 15.7963 51.8975 16.3938V32.4232C51.8975 32.9969 51.7463 33.4394 51.4447 33.75C51.166 34.0613 50.7362 34.2162 50.156 34.2162ZM90.3616 34.252C89.851 34.252 89.4212 34.0849 89.0729 33.75C88.7483 33.3914 88.5852 32.9496 88.5852 32.4232V22.1672C88.5852 20.6611 88.2258 19.5495 87.5055 18.8323C86.7859 18.0914 85.8455 17.7206 84.6842 17.7206C83.477 17.7206 82.4788 18.1509 81.6888 19.0116C80.9225 19.8722 80.5394 20.9724 80.5394 22.3107H77.6484C77.6484 20.7572 77.9738 19.3945 78.6237 18.2226C79.2743 17.0278 80.1799 16.0954 81.3405 15.4256C82.5247 14.7564 83.872 14.4215 85.3808 14.4215C86.7044 14.4215 87.8775 14.7205 88.8987 15.318C89.9207 15.9161 90.7099 16.8004 91.2672 17.9716C91.8482 19.1191 92.138 20.5177 92.138 22.1672V32.4232C92.138 32.9496 91.9757 33.3914 91.6503 33.75C91.3257 34.0849 90.8959 34.252 90.3616 34.252ZM67.1296 34.252C66.619 34.252 66.1892 34.0849 65.8409 33.75C65.5163 33.3914 65.3532 32.9496 65.3532 32.4232V16.4655C65.3532 15.9161 65.5163 15.4736 65.8409 15.1387C66.1892 14.8045 66.619 14.6366 67.1296 14.6366C67.6639 14.6366 68.0937 14.8045 68.4183 15.1387C68.7437 15.4736 68.906 15.9161 68.906 16.4655V32.4232C68.906 32.9496 68.7437 33.3914 68.4183 33.75C68.0937 34.0849 67.6639 34.252 67.1296 34.252ZM78.763 34.252C78.2524 34.252 77.8226 34.0849 77.4743 33.75C77.1497 33.3914 76.9867 32.9496 76.9867 32.4232V22.1672C76.9867 20.6611 76.6272 19.5495 75.9069 18.8323C75.1873 18.0914 74.2469 17.7206 73.0856 17.7206C71.8784 17.7206 70.8802 18.1509 70.0902 19.0116C69.3009 19.8722 68.906 20.9724 68.906 22.3107H66.7116C66.7116 20.7572 67.014 19.3945 67.6172 18.2226C68.2212 17.0278 69.0571 16.0954 70.125 15.4256C71.1936 14.7564 72.4127 14.4215 73.7822 14.4215C75.1058 14.4215 76.2789 14.7205 77.3001 15.318C78.3221 15.9161 79.1113 16.8004 79.6686 17.9716C80.2496 19.1191 80.5394 20.5177 80.5394 22.1672V32.4232C80.5394 32.9496 80.3771 33.3914 80.0518 33.75C79.7271 34.0849 79.2973 34.252 78.763 34.252ZM100.166 34.2162C99.6551 34.2162 99.2253 34.0491 98.877 33.7141C98.5524 33.3555 98.3894 32.9137 98.3894 32.3873V16.4296C98.3894 15.8803 98.5524 15.4378 98.877 15.1028C99.2253 14.7686 99.6551 14.6008 100.166 14.6008C100.7 14.6008 101.13 14.7686 101.454 15.1028C101.78 15.4378 101.942 15.8803 101.942 16.4296V32.3873C101.942 32.9137 101.78 33.3555 101.454 33.7141C101.13 34.0491 100.7 34.2162 100.166 34.2162ZM100.166 11.4092C99.5388 11.4092 98.9933 11.1826 98.5287 10.7279C98.0877 10.2503 97.8669 9.68796 97.8669 9.04249C97.8669 8.39701 98.0877 7.84764 98.5287 7.39294C98.9933 6.91528 99.5388 6.67574 100.166 6.67574C100.793 6.67574 101.327 6.91528 101.768 7.39294C102.233 7.84764 102.465 8.39701 102.465 9.04249C102.465 9.68796 102.233 10.2503 101.768 10.7279C101.327 11.1826 100.793 11.4092 100.166 11.4092ZM124.643 34.252C124.133 34.252 123.703 34.0849 123.355 33.75C123.029 33.3914 122.867 32.9496 122.867 32.4232V23.6016C122.867 22.2389 122.623 21.1273 122.135 20.2667C121.648 19.406 120.986 18.7727 120.15 18.3661C119.337 17.9358 118.397 17.7206 117.329 17.7206C116.354 17.7206 115.471 17.9243 114.682 18.3302C113.892 18.7369 113.266 19.287 112.801 19.9798C112.336 20.6496 112.104 21.4264 112.104 22.3107H109.91C109.91 20.8045 110.258 19.4663 110.955 18.2944C111.674 17.0995 112.65 16.155 113.881 15.4614C115.112 14.7686 116.493 14.4215 118.025 14.4215C119.628 14.4215 121.056 14.7801 122.31 15.4973C123.587 16.1908 124.585 17.2186 125.305 18.5812C126.048 19.9439 126.42 21.6179 126.42 23.6016V32.4232C126.42 32.9496 126.245 33.3914 125.897 33.75C125.572 34.0849 125.154 34.252 124.643 34.252ZM110.328 34.252C109.817 34.252 109.387 34.0849 109.039 33.75C108.714 33.3914 108.552 32.9496 108.552 32.4232V16.4296C108.552 15.8803 108.714 15.4378 109.039 15.1028C109.387 14.7686 109.817 14.6008 110.328 14.6008C110.862 14.6008 111.291 14.7686 111.617 15.1028C111.942 15.4378 112.104 15.8803 112.104 16.4296V32.4232C112.104 32.9496 111.942 33.3914 111.617 33.75C111.291 34.0849 110.862 34.252 110.328 34.252ZM140.931 34.3596C139.12 34.3596 137.483 33.9293 136.02 33.0686C134.58 32.1843 133.431 30.9888 132.572 29.4827C131.736 27.9765 131.318 26.2796 131.318 24.3905C131.318 22.5022 131.701 20.8167 132.468 19.3343C133.257 17.8282 134.325 16.6448 135.672 15.7842C137.019 14.8999 138.54 14.4573 140.235 14.4573C141.605 14.4573 142.87 14.7564 144.031 15.3538C145.193 15.9276 146.168 16.7165 146.957 17.7206V8.03841C146.957 7.48904 147.119 7.04652 147.445 6.71159C147.793 6.37738 148.223 6.20955 148.734 6.20955C149.268 6.20955 149.697 6.37738 150.022 6.71159C150.348 7.04652 150.51 7.48904 150.51 8.03841V24.3905C150.51 26.2796 150.08 27.9765 149.221 29.4827C148.385 30.9888 147.248 32.1843 145.808 33.0686C144.368 33.9293 142.743 34.3596 140.931 34.3596ZM140.931 31.1322C142.116 31.1322 143.172 30.8453 144.101 30.2716C145.03 29.6741 145.761 28.8616 146.295 27.8331C146.83 26.8054 147.096 25.6578 147.096 24.3905C147.096 23.0996 146.83 21.9521 146.295 20.948C145.761 19.9439 145.03 19.155 144.101 18.5812C143.172 17.9838 142.116 17.6847 140.931 17.6847C139.77 17.6847 138.714 17.9838 137.762 18.5812C136.833 19.155 136.09 19.9439 135.533 20.948C134.998 21.9521 134.732 23.0996 134.732 24.3905C134.732 25.6578 134.998 26.8054 135.533 27.8331C136.09 28.8616 136.833 29.6741 137.762 30.2716C138.714 30.8453 139.77 31.1322 140.931 31.1322ZM165.422 34.3596C163.541 34.3596 161.881 33.9415 160.441 33.1045C159.002 32.2439 157.863 31.0727 157.027 29.5902C156.215 28.0841 155.808 26.3628 155.808 24.4264C155.808 22.4663 156.215 20.745 157.027 19.2626C157.863 17.7565 159.002 16.5853 160.441 15.7483C161.881 14.8877 163.541 14.4573 165.422 14.4573C167.279 14.4573 168.928 14.8877 170.367 15.7483C171.807 16.5853 172.934 17.7565 173.746 19.2626C174.582 20.745 175 22.4663 175 24.4264C175 26.3628 174.594 28.0841 173.781 29.5902C172.969 31.0727 171.842 32.2439 170.402 33.1045C168.963 33.9415 167.302 34.3596 165.422 34.3596ZM165.422 31.1322C166.629 31.1322 167.697 30.8453 168.626 30.2716C169.555 29.6978 170.275 28.9089 170.785 27.9048C171.32 26.9007 171.587 25.7418 171.587 24.4264C171.587 23.1118 171.32 21.9521 170.785 20.948C170.275 19.9202 169.555 19.1191 168.626 18.5454C167.697 17.9716 166.629 17.6847 165.422 17.6847C164.214 17.6847 163.146 17.9716 162.217 18.5454C161.289 19.1191 160.557 19.9202 160.023 20.948C159.489 21.9521 159.222 23.1118 159.222 24.4264C159.222 25.7418 159.489 26.9007 160.023 27.9048C160.557 28.9089 161.289 29.6978 162.217 30.2716C163.146 30.8453 164.214 31.1322 165.422 31.1322Z" fill="#FF6700"/>
</svg>
